<svg width="21" height="18" viewBox="0 0 21 18" fill="none" xmlns="http://www.w3.org/2000/svg">
<path d="M14.429 0.437307L20.6156 7.47565C21.1281 8.05873 21.1281 9.00408 20.6156 9.58716L14.429 16.6255C13.9165 17.2086 13.0855 17.2086 12.573 16.6255C12.0605 16.0424 12.0605 15.0971 12.573 14.514L16.5185 10.0234L1.31238 10.0245C0.647975 10.0245 0.0988821 9.46277 0.0119806 8.734L0 8.53141C0 7.70681 0.587574 7.03835 1.31238 7.03835L16.5185 7.03728L12.573 2.54881C12.0605 1.96574 12.0605 1.02038 12.573 0.437307C13.0855 -0.145769 13.9165 -0.145769 14.429 0.437307Z" fill="#FFAEB6"/>
</svg>
