<svg width="14" height="15" viewBox="0 0 14 15" fill="none" xmlns="http://www.w3.org/2000/svg">
<path d="M6.99965 12.5479C7.66183 12.5479 8.26662 12.4736 8.81821 12.3453L7.58834 11.0782C7.39724 11.0934 7.20335 11.1056 6.99965 11.1056C3.25404 11.1056 1.80297 8.33218 1.45158 7.5C1.71544 6.89339 2.0718 6.33418 2.50716 5.84357L1.52858 4.83543C0.452004 6.03755 0.0439133 7.24832 0.0362135 7.27212C-0.0120712 7.42022 -0.0120712 7.5805 0.0362135 7.7286C0.0509131 7.77619 1.65668 12.5479 6.99965 12.5479ZM6.99965 2.4521C5.71378 2.4521 4.65751 2.73766 3.77693 3.15952L1.19469 0.5L0.20491 1.51968L12.8046 14.5L13.7944 13.4803L11.4711 11.0869C13.3009 9.67997 13.954 7.75888 13.9638 7.7286C14.0121 7.5805 14.0121 7.42022 13.9638 7.27212C13.9484 7.22381 12.3426 2.4521 6.99965 2.4521ZM10.48 10.0658L8.88401 8.4216C9.017 8.14036 9.0996 7.831 9.0996 7.5C9.0996 6.31663 8.14832 5.33661 6.99965 5.33661C6.67836 5.33661 6.37806 5.42171 6.10577 5.55944L4.8402 4.25564C5.53495 4.01003 6.26516 3.88786 6.99965 3.89435C10.7453 3.89435 12.1963 6.66782 12.5477 7.5C12.3363 7.99902 11.7315 9.18888 10.48 10.0658Z" fill="#484A4B"/>
</svg>
